<mxfile host="app.diagrams.net" modified="2023-06-27T14:23:30.414Z" agent="Mozilla/5.0 (Windows NT 10.0; Win64; x64) AppleWebKit/537.36 (KHTML, like Gecko) Chrome/114.0.0.0 Safari/537.36" etag="xMlN7VZ24nGmMn_mIlpY" version="21.5.0" type="device">
  <diagram name="PÃ¡gina-1" id="ToZwLSe4HMlyvbRh-myY">
    <mxGraphModel dx="1050" dy="477" grid="1" gridSize="10" guides="1" tooltips="1" connect="1" arrows="1" fold="1" page="1" pageScale="1" pageWidth="827" pageHeight="1169" math="0" shadow="0">
      <root>
        <mxCell id="0" />
        <mxCell id="1" parent="0" />
        <mxCell id="0eO1edX3dSBVoHHMXoEp-1" value="" style="endArrow=none;html=1;rounded=0;" edge="1" parent="1">
          <mxGeometry width="50" height="50" relative="1" as="geometry">
            <mxPoint x="120" y="160" as="sourcePoint" />
            <mxPoint x="600" y="160" as="targetPoint" />
          </mxGeometry>
        </mxCell>
        <mxCell id="0eO1edX3dSBVoHHMXoEp-2" value="" style="endArrow=none;html=1;rounded=0;" edge="1" parent="1" source="0eO1edX3dSBVoHHMXoEp-4">
          <mxGeometry width="50" height="50" relative="1" as="geometry">
            <mxPoint x="120" y="240" as="sourcePoint" />
            <mxPoint x="600" y="240" as="targetPoint" />
          </mxGeometry>
        </mxCell>
        <mxCell id="0eO1edX3dSBVoHHMXoEp-3" value="" style="endArrow=none;html=1;rounded=0;" edge="1" parent="1">
          <mxGeometry width="50" height="50" relative="1" as="geometry">
            <mxPoint x="120" y="320" as="sourcePoint" />
            <mxPoint x="600" y="320" as="targetPoint" />
          </mxGeometry>
        </mxCell>
        <mxCell id="0eO1edX3dSBVoHHMXoEp-5" value="" style="endArrow=none;html=1;rounded=0;" edge="1" parent="1" source="0eO1edX3dSBVoHHMXoEp-8">
          <mxGeometry width="50" height="50" relative="1" as="geometry">
            <mxPoint x="120" y="400" as="sourcePoint" />
            <mxPoint x="600" y="400" as="targetPoint" />
          </mxGeometry>
        </mxCell>
        <mxCell id="0eO1edX3dSBVoHHMXoEp-7" value="" style="endArrow=none;html=1;rounded=0;" edge="1" parent="1" target="0eO1edX3dSBVoHHMXoEp-4">
          <mxGeometry width="50" height="50" relative="1" as="geometry">
            <mxPoint x="120" y="240" as="sourcePoint" />
            <mxPoint x="600" y="240" as="targetPoint" />
          </mxGeometry>
        </mxCell>
        <mxCell id="0eO1edX3dSBVoHHMXoEp-4" value="" style="verticalLabelPosition=bottom;shadow=0;dashed=0;align=center;html=1;verticalAlign=top;shape=mxgraph.electrical.logic_gates.inverter_2" vertex="1" parent="1">
          <mxGeometry x="140" y="230" width="40" height="20" as="geometry" />
        </mxCell>
        <mxCell id="0eO1edX3dSBVoHHMXoEp-9" value="" style="endArrow=none;html=1;rounded=0;" edge="1" parent="1" target="0eO1edX3dSBVoHHMXoEp-8">
          <mxGeometry width="50" height="50" relative="1" as="geometry">
            <mxPoint x="120" y="400" as="sourcePoint" />
            <mxPoint x="600" y="400" as="targetPoint" />
          </mxGeometry>
        </mxCell>
        <mxCell id="0eO1edX3dSBVoHHMXoEp-8" value="" style="verticalLabelPosition=bottom;shadow=0;dashed=0;align=center;html=1;verticalAlign=top;shape=mxgraph.electrical.logic_gates.inverter_2" vertex="1" parent="1">
          <mxGeometry x="140" y="390" width="40" height="20" as="geometry" />
        </mxCell>
        <mxCell id="0eO1edX3dSBVoHHMXoEp-10" value="" style="verticalLabelPosition=bottom;shadow=0;dashed=0;align=center;html=1;verticalAlign=top;shape=mxgraph.electrical.logic_gates.d_type_flip-flop;" vertex="1" parent="1">
          <mxGeometry x="180" y="490" width="100" height="80" as="geometry" />
        </mxCell>
        <mxCell id="0eO1edX3dSBVoHHMXoEp-11" value="" style="verticalLabelPosition=bottom;shadow=0;dashed=0;align=center;html=1;verticalAlign=top;shape=mxgraph.electrical.logic_gates.d_type_flip-flop;" vertex="1" parent="1">
          <mxGeometry x="440" y="490" width="100" height="80" as="geometry" />
        </mxCell>
        <mxCell id="0eO1edX3dSBVoHHMXoEp-12" value="" style="shape=or;whiteSpace=wrap;html=1;rotation=-90;" vertex="1" parent="1">
          <mxGeometry x="220" y="20" width="20" height="30" as="geometry" />
        </mxCell>
        <mxCell id="0eO1edX3dSBVoHHMXoEp-13" value="" style="shape=or;whiteSpace=wrap;html=1;rotation=-90;" vertex="1" parent="1">
          <mxGeometry x="320" y="20" width="20" height="30" as="geometry" />
        </mxCell>
        <mxCell id="0eO1edX3dSBVoHHMXoEp-14" value="" style="shape=or;whiteSpace=wrap;html=1;rotation=-90;" vertex="1" parent="1">
          <mxGeometry x="420" y="20" width="20" height="30" as="geometry" />
        </mxCell>
        <mxCell id="0eO1edX3dSBVoHHMXoEp-15" value="" style="shape=or;whiteSpace=wrap;html=1;rotation=-90;" vertex="1" parent="1">
          <mxGeometry x="510" y="20" width="20" height="30" as="geometry" />
        </mxCell>
        <mxCell id="0eO1edX3dSBVoHHMXoEp-16" value="" style="shape=or;whiteSpace=wrap;html=1;rotation=90;" vertex="1" parent="1">
          <mxGeometry x="360" y="440" width="20" height="30" as="geometry" />
        </mxCell>
        <mxCell id="0eO1edX3dSBVoHHMXoEp-17" value="" style="shape=or;whiteSpace=wrap;html=1;rotation=90;" vertex="1" parent="1">
          <mxGeometry x="404" y="440" width="20" height="30" as="geometry" />
        </mxCell>
        <mxCell id="0eO1edX3dSBVoHHMXoEp-18" value="" style="shape=xor;whiteSpace=wrap;html=1;rotation=90;" vertex="1" parent="1">
          <mxGeometry x="384" y="480" width="20" height="30" as="geometry" />
        </mxCell>
      </root>
    </mxGraphModel>
  </diagram>
</mxfile>
